<svg width="78" height="67" viewBox="0 0 78 67" fill="none" xmlns="http://www.w3.org/2000/svg">
<path d="M77.4222 58.9601V61.64C77.4222 63.0616 76.8596 64.4249 75.8583 65.4301C74.8569 66.4353 73.4987 67 72.0826 67H41.1494C39.7416 67.0028 38.3903 66.445 37.3917 65.449L1.59274 30.6261L1.56271 30.5959C0.562087 29.5908 0 28.228 0 26.8071C0 25.3862 0.562087 24.0234 1.56271 23.0183L22.9212 1.5383L22.9713 1.4914C23.9767 0.519122 25.3232 -0.0165391 26.7192 0.000389368C28.1152 0.0173178 29.4484 0.585473 30.4301 1.58185L33.17 4.35562C34.1073 5.29782 34.6617 6.55649 34.7252 7.88649C35.1023 15.5512 40.3985 20.7202 48.5114 21.3768C49.8406 21.4915 51.0789 22.1014 51.9825 23.0866C52.8861 24.0717 53.3896 25.3608 53.3939 26.6999V34.8403C53.3939 37.6834 54.519 40.41 56.5218 42.4204C58.5245 44.4308 61.2408 45.5602 64.0731 45.5602C67.6135 45.5602 71.0089 46.972 73.5124 49.4849C76.0158 51.9979 77.4222 55.4062 77.4222 58.9601ZM72.0826 58.9601C72.0826 56.8278 71.2387 54.7828 69.7367 53.275C68.2346 51.7672 66.1974 50.9202 64.0731 50.9202C60.9272 50.9239 57.8507 49.9913 55.2327 48.2402H45.3844C44.6763 48.2402 43.9973 47.9578 43.4966 47.4552C42.9959 46.9526 42.7146 46.271 42.7146 45.5602C42.7146 44.8494 42.9959 44.1678 43.4966 43.6652C43.9973 43.1626 44.6763 42.8802 45.3844 42.8802H50.2101C49.252 41.2242 48.5986 39.4086 48.2812 37.5203H42.7146C42.0065 37.5203 41.3274 37.2379 40.8267 36.7353C40.3261 36.2327 40.0448 35.5511 40.0448 34.8403C40.0448 34.1295 40.3261 33.4479 40.8267 32.9453C41.3274 32.4427 42.0065 32.1603 42.7146 32.1603H48.0542V26.6999C42.9048 26.2778 38.4162 24.3549 35.0789 21.139C31.6115 17.789 29.6458 13.2967 29.4056 8.13103L26.6523 5.36061L5.33716 26.8004L41.1194 61.6065L41.1494 61.6333H72.0826V58.9601Z" fill="url(#paint0_linear_26_330)"/>
<defs>
<linearGradient id="paint0_linear_26_330" x1="6.45174e-07" y1="10.05" x2="84.8667" y2="67" gradientUnits="userSpaceOnUse">
<stop stop-color="#06C1FC"/>
<stop offset="0.367462" stop-color="#AF3EE2"/>
<stop offset="0.65287" stop-color="#FF00D6"/>
<stop offset="0.994792" stop-color="#FF003D"/>
</linearGradient>
</defs>
</svg>
