<svg width="50" height="52" viewBox="0 0 50 52" fill="none" xmlns="http://www.w3.org/2000/svg">
<g filter="url(#filter0_d_325_12)">
<rect x="4" width="42" height="44" rx="10" fill="#292929"/>
<path d="M16 33C16 28.3713 19.8056 24.619 24.5 24.619C29.1944 24.619 33 28.3713 33 33H30.875C30.875 29.5285 28.0208 26.7143 24.5 26.7143C20.9792 26.7143 18.125 29.5285 18.125 33H16ZM24.5 23.5714C20.9778 23.5714 18.125 20.7586 18.125 17.2857C18.125 13.8129 20.9778 11 24.5 11C28.0222 11 30.875 13.8129 30.875 17.2857C30.875 20.7586 28.0222 23.5714 24.5 23.5714ZM24.5 21.4762C26.8481 21.4762 28.75 19.601 28.75 17.2857C28.75 14.9705 26.8481 13.0952 24.5 13.0952C22.1519 13.0952 20.25 14.9705 20.25 17.2857C20.25 19.601 22.1519 21.4762 24.5 21.4762Z" fill="#FCFCFC"/>
</g>
<defs>
<filter id="filter0_d_325_12" x="0" y="0" width="50" height="52" filterUnits="userSpaceOnUse" color-interpolation-filters="sRGB">
<feFlood flood-opacity="0" result="BackgroundImageFix"/>
<feColorMatrix in="SourceAlpha" type="matrix" values="0 0 0 0 0 0 0 0 0 0 0 0 0 0 0 0 0 0 127 0" result="hardAlpha"/>
<feOffset dy="4"/>
<feGaussianBlur stdDeviation="2"/>
<feComposite in2="hardAlpha" operator="out"/>
<feColorMatrix type="matrix" values="0 0 0 0 0 0 0 0 0 0 0 0 0 0 0 0 0 0 0.25 0"/>
<feBlend mode="normal" in2="BackgroundImageFix" result="effect1_dropShadow_325_12"/>
<feBlend mode="normal" in="SourceGraphic" in2="effect1_dropShadow_325_12" result="shape"/>
</filter>
</defs>
</svg>
